<?xml version="1.0" encoding="utf-8"?>
<!-- Generator: Adobe Illustrator 22.1.0, SVG Export Plug-In . SVG Version: 6.00 Build 0)  -->
<svg version="1.1" id="Шар_1" xmlns="http://www.w3.org/2000/svg" xmlns:xlink="http://www.w3.org/1999/xlink" x="0px" y="0px"
	 viewBox="0 0 1105.2 1920" style="enable-background:new 0 0 1105.2 1920;" xml:space="preserve">
<style type="text/css">
	.st0{fill:#433D6E;}
	.st1{fill:#443D6E;}
	.st2{fill:#BDBACE;}
	.st3{fill:#9894B2;}
	.st4{fill:#6E6A89;}
	.st5{fill:#FFFFFF;}
</style>
<polygon class="st0" points="486,926.1 405.2,880.5 410.1,871 475.2,907.1 475.2,898.5 407,858.3 486,812.7 486,846.6 453.5,866.5 
	448.1,857 475.2,840.7 475.2,831.7 428.7,858.8 486,892.2 "/>
<polygon class="st0" points="502.8,946.9 493.3,941 577.8,793.7 611.7,793.7 525.3,946.4 515.9,941 593.1,805 584.1,805 "/>
<polygon class="st0" points="617.5,926.1 617.5,891.3 648.3,873.7 653.7,883.2 628.8,897.6 628.8,907.1 673.1,881.4 617.5,847.9 
	617.5,812.7 694.8,857 689.4,866.5 628.8,831.7 628.8,841.6 694.8,881.8 "/>
<path class="st1" d="M546.6,1439l-326.7-174.4l-9.5-423.4l283.3-142.8h9.5l2.7,0.5c21.2,4.5,38,6.3,48.3,7.2h1.4h1.8
	c9.5-0.9,24.4-2.7,43.8-7.2l3.2-0.9h9.5l5.9,2.7l282,141.4l-2.7,420.2L546.6,1439z M274.1,1231.1L547,1377.1L843.5,1228l2.3-352.4
	L603.1,754c-17.6,3.6-31.6,5.4-40.7,6.3l-6.3,0.5h-1.8c-0.9,0-2.3,0-3.6-0.5h-0.9c-10.4-0.9-26.2-2.7-45.6-6.3L266,874.1
	L274.1,1231.1z"/>
<polygon class="st1" points="879.2,896.3 561.5,1073 219.9,896.3 272.3,863.8 556.1,1011.1 825.8,860.6 "/>
<path class="st2" d="M888.2,1265.9c0,0-223.2,406.7-704,645.7l-99-123.8c0,0,243.1-108.4,460-355.6L888.2,1265.9z"/>
<path class="st3" d="M545.2,1432.2c0,0-85.9,132.8-343.4,297.8l-97.1-124.7c0,0,85.4-39.8,308.2-239.9L545.2,1432.2z"/>
<path class="st4" d="M412.8,1365.3c0,0-36.6,40.7-211.9,176.7l-96.2-122.9l169-126.1L412.8,1365.3z"/>
<path class="st0" d="M273.2,1293.5c0,0-31.2,25.3-87.7,65.5L85.2,1232.5l131.5-119.7L273.2,1293.5z"/>
<path class="st1" d="M213.1,1312.9l-38.9-38.9c0.5-0.5,41.1-41.6,111.2-140.5c6.3-9,13.6-21.7,10.8-30.7
	c-7.2-23.9-69.6-46.5-124.3-66.4c-39.8-14.5-80.9-29.4-118.8-49.3C27.4,974,11.6,952.3,7.5,924.8c-7.7-52.4,27.1-125.6,105.7-223.7
	c55.1-68.7,111.6-123.4,113.9-125.6l38.4,39.3c-84,81.3-213.7,235.4-203.8,301.8c1.4,9.9,6.3,16.3,16.3,21.7
	c34.8,18.1,74.1,32.5,112.1,46.1c76.4,28,142.3,52,158.2,101.7c7.7,24.4,1.4,51.1-18.1,79.1C257.4,1268.6,214.9,1311.1,213.1,1312.9
	z"/>
<path class="st1" d="M904.5,1315.6c-2.3-1.8-60.5-45.2-134.7-150.5c-19.9-28-25.8-54.7-18.1-79.1c15.4-49.7,81.3-73.7,158.2-101.7
	c38-14,77.3-28,112.1-46.1c9.9-5,14.9-11.7,16.3-21.7c2.3-16.3-1.8-66.4-94.4-181.2c-53.3-66-108.9-120.2-109.3-120.6l38.4-39.3
	c2.3,2.3,58.7,56.9,113.9,125.6c79.1,98.1,113.4,171.3,105.7,223.7c-4.1,27.6-19.9,49.3-45.6,62.4c-38,19.4-79.1,34.8-118.8,49.3
	c-54.7,19.9-117,42.5-124.3,66.4c-2.7,9,4.1,21.7,10.8,30.7c68.7,97.1,122,137.4,122.9,137.8L904.5,1315.6z"/>
<path class="st1" d="M556.5,761.2h-1.8c-0.9,0-2.3,0-3.6-0.5h-0.9c-11.3-0.9-29.4-3.2-52.4-7.7l0,0l-2.7-0.5
	c-116.1-24.9-385.4-126.5-385.9-535c-0.5-15.8,3.2-134.2,214.6-185.3c60.5-14.9,133.7-23,217.8-23.9c2.7,0,5.4,0,8.1,0
	c84,1.4,157.7,9.5,218.7,24.4c211,51.5,214.6,169.4,213.7,185.3c0,406.7-257.6,509.7-368.3,534.5l-3.2,0.9
	c-20.8,4.5-37.1,6.8-47.4,7.7L556.5,761.2z M504.6,698.4l1.8,0.5c21.2,4.5,38,6.3,48.3,7.2h1.4h1.8c9.5-0.9,24.4-2.7,43.8-7.2
	l3.2-0.9c54.7-12.7,132.4-42.5,197.9-110.7c82.7-85.9,124.7-210.6,124.7-370.1v-1.8c0-7.2-3.2-88.1-172.2-129.2
	c-56.9-14-126.5-21.7-206.5-22.6h-0.9c-0.5,0-1.4,0-1.8,0s-1.4,0-1.8,0h-0.9c-80,1.4-149.1,8.6-206,22.6
	c-174.9,42.5-173.1,128.3-173.1,129.2v2.3c0,160,43.8,284.2,130.1,370.1C363.6,656.4,446.7,685.7,504.6,698.4z"/>
<path class="st1" d="M545.7,259.6c-133.3,0-239.9-87.7-243.1-199.7l55.1-1.4c2.3,80.9,86.8,146.4,188,146.4s185.7-65.5,188-146.4
	l55.1,1.8C785.2,171.5,678.5,259.6,545.7,259.6z"/>
<path class="st1" d="M847.5,406.5C823.1,587.7,665,633.8,576,645.1c-11.3,1.4-21.7,2.3-30.3,2.7c-8.6-0.5-19-1.4-30.3-2.7
	c-89-11.3-247.2-57.4-271.6-238.6c0,0,170.8-82.7,301.8-77.3C676.7,323.8,847.5,406.5,847.5,406.5z"/>
<path class="st5" d="M710.6,524.9c-47.4,10.4-84-44.3-82.7-49.3l42.9-3.6c31.2-2.7,61.9-10.8,90.4-23.5l5.4-2.3
	C769.8,450.3,759,514,710.6,524.9z"/>
<path class="st5" d="M375.8,524.9c47.4,10.4,84-44.3,82.7-49.3l-42.9-3.6c-31.2-2.7-61.9-10.8-90.4-23.5l-5.4-2.3
	C316.6,450.3,327.4,514,375.8,524.9z"/>
</svg>
